<svg width="100" height="100" viewBox="0 0 100 100" fill="none" xmlns="http://www.w3.org/2000/svg">
<g clip-path="url(#clip0_74_90)">
<rect width="100" height="100" fill="#242424"/>
<rect width="100" height="99.9227" fill="#242424"/>
<mask id="mask0_74_90" style="mask-type:alpha" maskUnits="userSpaceOnUse" x="11" y="11" width="78" height="78">
<path d="M46.544 42.9076C34.2653 46.5651 12.5816 54.9251 11.5366 88.8875C17.2841 70.3388 25.1215 67.9876 42.8865 63.8076C60.6515 59.6276 72.2719 54.2354 81.5515 42.197C90.8311 30.1586 88.0827 11.0352 88.0827 11.0352C88.0827 20.9626 81.029 27.4939 74.2365 32.1964C67.444 36.8989 58.8228 39.2501 46.544 42.9076Z" fill="#733C3C"/>
</mask>
<g mask="url(#mask0_74_90)">
<path d="M46.544 42.9076C34.2653 46.5651 12.5816 54.9251 11.5366 88.8875C15.4554 70.6001 25.1215 67.9876 42.8865 63.8076C60.6515 59.6276 70.3177 54.9251 81.029 42.1239C91.7402 29.3226 88.0827 11.0352 88.0827 11.0352C88.0827 20.9626 81.029 27.4939 74.2365 32.1964C67.444 36.8989 58.8228 39.2501 46.544 42.9076Z" fill="url(#paint0_linear_74_90)"/>
<path d="M11.6868 85.8864C11.6186 86.8639 11.5684 87.8641 11.5369 88.8875C11.4685 87.9531 11.5215 86.9472 11.6868 85.8864C13.8802 54.4255 34.6356 46.4549 46.5443 42.9076C58.8231 39.2501 67.4443 36.8989 74.2368 32.1964C81.0293 27.4939 88.083 20.9626 88.083 11.0352C88.083 11.0352 91.7405 29.3226 81.0292 42.1239C70.318 54.9251 61.4356 49.7001 43.6706 53.8801C27.4554 57.6954 13.4167 74.7879 11.6868 85.8864Z" fill="url(#paint1_linear_74_90)"/>
<path d="M45.499 47.0876C21.2597 57.8606 11.275 78.2634 11.5362 88.8875C12.32 78.6988 21.4641 65.6363 32.4365 62.7626C43.409 59.8888 64.5702 62.7626 76.849 50.2226C89.1277 37.6826 88.0825 11.0352 88.0825 11.0352C88.0825 21.491 71.3629 35.5926 45.499 47.0876Z" fill="url(#paint2_linear_74_90)"/>
<g filter="url(#filter0_f_74_90)">
<path d="M34.3521 56.6916C31.7426 59.0728 28.314 61.9719 22.7705 65.8975C25.8081 62.4954 30.0457 59.3501 34.3521 56.6916C40.9952 50.6297 42.3287 47.9253 59.7321 40.1905C85.596 28.6955 86.5154 22.7971 86.5154 12.3413C86.5154 12.3413 89.3891 28.2775 77.8941 40.5563C66.3991 52.835 53.8591 48.1325 51.7692 48.3938C50.4157 48.563 42.2678 51.8049 34.3521 56.6916Z" fill="#00418F"/>
</g>
<path d="M45.499 47.0876C21.2597 57.8606 11.275 78.2634 11.5362 88.8875C12.32 78.6988 22.5091 58.8438 39.2291 55.7088C55.949 52.5738 66.399 52.8351 77.894 40.5564C89.389 28.2776 88.0825 11.0352 88.0825 11.0352C88.0825 21.491 71.3629 35.5926 45.499 47.0876Z" fill="url(#paint3_linear_74_90)"/>
<g filter="url(#filter1_f_74_90)">
<path d="M24.1798 64.256C22.7116 65.6855 22.0045 66.6116 21.7256 66.6813C22.2799 65.9686 23.1222 65.1359 24.1798 64.256C28.2118 60.3301 37.9836 52.6071 60.3905 48.3938C67.7055 47.0005 72.6692 42.6464 79.2004 37.1601C85.7317 31.6739 88.0828 20.9626 88.0828 11.0352C88.0828 11.0352 92.0016 31.6739 79.7228 44.2139C67.4441 56.7538 39.4906 55.9701 34.0043 58.3213C30.1809 59.9599 26.6114 62.2328 24.1798 64.256Z" fill="#B4162E" fill-opacity="0.6"/>
</g>
<g filter="url(#filter2_f_74_90)">
<path d="M46.0215 49.1776C39.4903 52.3126 36.6165 54.4026 26.1665 61.1951C32.4365 57.2763 33.2202 57.7988 44.7152 51.5288C61.6964 42.9076 65.3539 54.9251 77.6326 42.3851C89.9113 29.8451 88.0825 11.0352 88.0825 11.0352C88.0825 20.9626 86.2538 29.3226 79.7226 34.8089C73.1914 40.2951 52.5526 46.0426 46.0215 49.1776Z" fill="#4C2FA9"/>
</g>
<path d="M50.9854 45.5201C20.4191 51.2676 11.2754 78.2634 11.5367 88.8875C12.3204 78.6988 21.2029 66.9426 32.6979 60.6726C49.6791 52.0513 67.4441 56.7538 79.7228 44.2139C92.0015 31.6739 88.0828 11.0352 88.0828 11.0352C88.0828 20.9626 84.4253 30.3676 77.894 35.8539C71.3628 41.3401 58.3004 44.1268 50.9854 45.5201Z" fill="url(#paint4_linear_74_90)"/>
</g>
</g>
<defs>
<filter id="filter0_f_74_90" x="12.7385" y="2.30932" width="84.1279" height="73.6201" filterUnits="userSpaceOnUse" color-interpolation-filters="sRGB">
<feFlood flood-opacity="0" result="BackgroundImageFix"/>
<feBlend mode="normal" in="SourceGraphic" in2="BackgroundImageFix" result="shape"/>
<feGaussianBlur stdDeviation="5.01599" result="effect1_foregroundBlur_74_90"/>
</filter>
<filter id="filter1_f_74_90" x="18.716" y="8.02556" width="72.9713" height="61.6652" filterUnits="userSpaceOnUse" color-interpolation-filters="sRGB">
<feFlood flood-opacity="0" result="BackgroundImageFix"/>
<feBlend mode="normal" in="SourceGraphic" in2="BackgroundImageFix" result="shape"/>
<feGaussianBlur stdDeviation="1.5048" result="effect1_foregroundBlur_74_90"/>
</filter>
<filter id="filter2_f_74_90" x="24.0765" y="8.94516" width="66.1922" height="54.3401" filterUnits="userSpaceOnUse" color-interpolation-filters="sRGB">
<feFlood flood-opacity="0" result="BackgroundImageFix"/>
<feBlend mode="normal" in="SourceGraphic" in2="BackgroundImageFix" result="shape"/>
<feGaussianBlur stdDeviation="1.045" result="effect1_foregroundBlur_74_90"/>
</filter>
<linearGradient id="paint0_linear_74_90" x1="31.6528" y1="60.9338" x2="29.8241" y2="88.1038" gradientUnits="userSpaceOnUse">
<stop stop-color="#FD5200"/>
<stop offset="0.27225" stop-color="#FFDC38"/>
<stop offset="0.96259" stop-color="#F3FEAB"/>
</linearGradient>
<linearGradient id="paint1_linear_74_90" x1="62.2193" y1="31.6739" x2="10.7532" y2="68.7713" gradientUnits="userSpaceOnUse">
<stop stop-color="#0C64CC"/>
<stop offset="0.28457" stop-color="#1F9FE3"/>
<stop offset="0.485108" stop-color="#1B9DEB"/>
<stop offset="0.756932" stop-color="#72F07F"/>
<stop offset="0.858448" stop-color="#DBFEC8"/>
<stop offset="0.991306" stop-color="#F6F9B1"/>
</linearGradient>
<linearGradient id="paint2_linear_74_90" x1="62.4908" y1="14.3583" x2="44.1928" y2="84.9688" gradientUnits="userSpaceOnUse">
<stop offset="0.407169" stop-color="#9E010A"/>
<stop offset="0.624404" stop-color="#FC56A4"/>
<stop offset="0.688975" stop-color="#F2A780"/>
<stop offset="0.743082" stop-color="#FFC78A"/>
</linearGradient>
<linearGradient id="paint3_linear_74_90" x1="86.7765" y1="23.8364" x2="64.8315" y2="10.7739" gradientUnits="userSpaceOnUse">
<stop stop-color="#4226A2"/>
<stop offset="0.322086" stop-color="#7357CB"/>
<stop offset="0.628334" stop-color="#3B8FE4"/>
</linearGradient>
<linearGradient id="paint4_linear_74_90" x1="89.1279" y1="21.2239" x2="12.5817" y2="81.05" gradientUnits="userSpaceOnUse">
<stop stop-color="#7C4ADF"/>
<stop offset="0.345854" stop-color="#E251D8"/>
<stop offset="0.729692" stop-color="#FCDFBC"/>
<stop offset="0.831215" stop-color="#F6F8B0"/>
<stop offset="0.918555" stop-color="#FFFFF2"/>
<stop offset="0.98944" stop-color="#F6F8B0"/>
</linearGradient>
<clipPath id="clip0_74_90">
<rect width="100" height="100" fill="white"/>
</clipPath>
</defs>
</svg>
